{
    "asset" : {
        "generator" : "Khronos glTF Blender I/O v1.5.17",
        "version" : "2.0"
    },
    "scene" : 0,
    "scenes" : [
        {
            "name" : "Scene",
            "nodes" : [
                0
            ]
        }
    ],
    "nodes" : [
        {
            "mesh" : 0,
            "name" : "access_arm",
            "translation" : [
                12.4356689453125,
                114.25714111328125,
                0
            ]
        }
    ],
    "meshes" : [
        {
            "name" : "Cube.005",
            "primitives" : [
                {
                    "attributes" : {
                        "POSITION" : 0,
                        "NORMAL" : 1,
                        "TEXCOORD_0" : 2
                    },
                    "indices" : 3
                }
            ]
        }
    ],
    "accessors" : [
        {
            "bufferView" : 0,
            "componentType" : 5126,
            "count" : 2745,
            "max" : [
                8.035134315490723,
                1.6536756753921509,
                1.3006174564361572
            ],
            "min" : [
                -7.947351932525635,
                -1.6927428245544434,
                -1.3006174564361572
            ],
            "type" : "VEC3"
        },
        {
            "bufferView" : 1,
            "componentType" : 5126,
            "count" : 2745,
            "type" : "VEC3"
        },
        {
            "bufferView" : 2,
            "componentType" : 5126,
            "count" : 2745,
            "type" : "VEC2"
        },
        {
            "bufferView" : 3,
            "componentType" : 5123,
            "count" : 3960,
            "type" : "SCALAR"
        }
    ],
    "bufferViews" : [
        {
            "buffer" : 0,
            "byteLength" : 32940,
            "byteOffset" : 0
        },
        {
            "buffer" : 0,
            "byteLength" : 32940,
            "byteOffset" : 32940
        },
        {
            "buffer" : 0,
            "byteLength" : 21960,
            "byteOffset" : 65880
        },
        {
            "buffer" : 0,
            "byteLength" : 7920,
            "byteOffset" : 87840
        }
    ],
    "buffers" : [
        {
            "byteLength" : 95760,
            "uri" : "data:application/octet-stream;base64,"
        }
    ]
}
