{
    "asset" : {
        "generator" : "Khronos glTF Blender I/O v1.5.17",
        "version" : "2.0"
    },
    "scene" : 0,
    "scenes" : [
        {
            "name" : "Scene",
            "nodes" : [
                0,
                1,
                2,
                3
            ]
        }
    ],
    "nodes" : [
        {
            "mesh" : 0,
            "name" : "arm_lvl_ceiling"
        },
        {
            "mesh" : 1,
            "name" : "arm_lvl_floor"
        },
        {
            "mesh" : 2,
            "name" : "elevator_cage_top"
        },
        {
            "mesh" : 3,
            "name" : "elevator_top",
            "scale" : [
                0.9739499688148499,
                0.9739499688148499,
                0.9739499688148499
            ],
            "translation" : [
                0,
                0.695824384689331,
                0
            ]
        }
    ],
    "materials" : [
        {
            "doubleSided" : true,
            "name" : "metal",
            "pbrMetallicRoughness" : {
                "baseColorFactor" : [
                    0.6441287994384766,
                    0.6441287994384766,
                    0.6441287994384766,
                    1
                ],
                "roughnessFactor" : 0.7352941036224365
            }
        }
    ],
    "meshes" : [
        {
            "name" : "Cube.011",
            "primitives" : [
                {
                    "attributes" : {
                        "POSITION" : 0,
                        "NORMAL" : 1,
                        "TEXCOORD_0" : 2
                    },
                    "indices" : 3
                }
            ]
        },
        {
            "name" : "Cube.010",
            "primitives" : [
                {
                    "attributes" : {
                        "POSITION" : 4,
                        "NORMAL" : 5,
                        "TEXCOORD_0" : 6
                    },
                    "indices" : 7
                }
            ]
        },
        {
            "name" : "Cube.006",
            "primitives" : [
                {
                    "attributes" : {
                        "POSITION" : 8,
                        "NORMAL" : 9,
                        "TEXCOORD_0" : 10
                    },
                    "indices" : 11,
                    "material" : 0
                }
            ]
        },
        {
            "name" : "Cube.008",
            "primitives" : [
                {
                    "attributes" : {
                        "POSITION" : 12,
                        "NORMAL" : 13,
                        "TEXCOORD_0" : 14
                    },
                    "indices" : 15,
                    "material" : 0
                }
            ]
        }
    ],
    "accessors" : [
        {
            "bufferView" : 0,
            "componentType" : 5126,
            "count" : 220,
            "max" : [
                4.5336198806762695,
                116.00659942626953,
                4.534305095672607
            ],
            "min" : [
                -4.534305095672607,
                115.90660095214844,
                -4.534305095672607
            ],
            "type" : "VEC3"
        },
        {
            "bufferView" : 1,
            "componentType" : 5126,
            "count" : 220,
            "type" : "VEC3"
        },
        {
            "bufferView" : 2,
            "componentType" : 5126,
            "count" : 220,
            "type" : "VEC2"
        },
        {
            "bufferView" : 3,
            "componentType" : 5123,
            "count" : 324,
            "type" : "SCALAR"
        },
        {
            "bufferView" : 4,
            "componentType" : 5126,
            "count" : 371,
            "max" : [
                4.524770259857178,
                112.66012573242188,
                4.52327823638916
            ],
            "min" : [
                -4.5210862159729,
                112.56012725830078,
                -4.523263454437256
            ],
            "type" : "VEC3"
        },
        {
            "bufferView" : 5,
            "componentType" : 5126,
            "count" : 371,
            "type" : "VEC3"
        },
        {
            "bufferView" : 6,
            "componentType" : 5126,
            "count" : 371,
            "type" : "VEC2"
        },
        {
            "bufferView" : 7,
            "componentType" : 5123,
            "count" : 480,
            "type" : "SCALAR"
        },
        {
            "bufferView" : 8,
            "componentType" : 5126,
            "count" : 96,
            "max" : [
                0.9366230964660645,
                114.958984375,
                0.844172477722168
            ],
            "min" : [
                -0.9219772815704346,
                112.66012573242188,
                -0.8808664083480835
            ],
            "type" : "VEC3"
        },
        {
            "bufferView" : 9,
            "componentType" : 5126,
            "count" : 96,
            "type" : "VEC3"
        },
        {
            "bufferView" : 10,
            "componentType" : 5126,
            "count" : 96,
            "type" : "VEC2"
        },
        {
            "bufferView" : 11,
            "componentType" : 5123,
            "count" : 156,
            "type" : "SCALAR"
        },
        {
            "bufferView" : 12,
            "componentType" : 5126,
            "count" : 476,
            "max" : [
                0.9355444312095642,
                117.35468292236328,
                0.844172477722168
            ],
            "min" : [
                -0.9366230964660645,
                114.91431427001953,
                -0.8808664083480835
            ],
            "type" : "VEC3"
        },
        {
            "bufferView" : 13,
            "componentType" : 5126,
            "count" : 476,
            "type" : "VEC3"
        },
        {
            "bufferView" : 14,
            "componentType" : 5126,
            "count" : 476,
            "type" : "VEC2"
        },
        {
            "bufferView" : 15,
            "componentType" : 5123,
            "count" : 708,
            "type" : "SCALAR"
        }
    ],
    "bufferViews" : [
        {
            "buffer" : 0,
            "byteLength" : 2640,
            "byteOffset" : 0
        },
        {
            "buffer" : 0,
            "byteLength" : 2640,
            "byteOffset" : 2640
        },
        {
            "buffer" : 0,
            "byteLength" : 1760,
            "byteOffset" : 5280
        },
        {
            "buffer" : 0,
            "byteLength" : 648,
            "byteOffset" : 7040
        },
        {
            "buffer" : 0,
            "byteLength" : 4452,
            "byteOffset" : 7688
        },
        {
            "buffer" : 0,
            "byteLength" : 4452,
            "byteOffset" : 12140
        },
        {
            "buffer" : 0,
            "byteLength" : 2968,
            "byteOffset" : 16592
        },
        {
            "buffer" : 0,
            "byteLength" : 960,
            "byteOffset" : 19560
        },
        {
            "buffer" : 0,
            "byteLength" : 1152,
            "byteOffset" : 20520
        },
        {
            "buffer" : 0,
            "byteLength" : 1152,
            "byteOffset" : 21672
        },
        {
            "buffer" : 0,
            "byteLength" : 768,
            "byteOffset" : 22824
        },
        {
            "buffer" : 0,
            "byteLength" : 312,
            "byteOffset" : 23592
        },
        {
            "buffer" : 0,
            "byteLength" : 5712,
            "byteOffset" : 23904
        },
        {
            "buffer" : 0,
            "byteLength" : 5712,
            "byteOffset" : 29616
        },
        {
            "buffer" : 0,
            "byteLength" : 3808,
            "byteOffset" : 35328
        },
        {
            "buffer" : 0,
            "byteLength" : 1416,
            "byteOffset" : 39136
        }
    ],
    "buffers" : [
        {
            "byteLength" : 40552,
            "uri" : "data:application/octet-stream;base64,"
        }
    ]
}
