{
    "asset" : {
        "generator" : "Khronos glTF Blender I/O v1.7.33",
        "version" : "2.0"
    },
    "scene" : 0,
    "scenes" : [
        {
            "name" : "Scene",
            "nodes" : [
                0,
                1,
                2,
                3
            ]
        }
    ],
    "nodes" : [
        {
            "mesh" : 0,
            "name" : "booster",
            "translation" : [
                -0.009138703346252441,
                0.7527217864990234,
                0.008762717247009277
            ]
        },
        {
            "mesh" : 1,
            "name" : "raptor_engine.fix_ext",
            "rotation" : [
                0,
                -0.010818189941346645,
                0,
                0.9999415874481201
            ],
            "translation" : [
                -4.028408527374268,
                0.6254863739013672,
                1.2905476093292236
            ]
        },
        {
            "mesh" : 2,
            "name" : "grid_fins",
            "rotation" : [
                0,
                -0.9623134136199951,
                0,
                -0.27194324135780334
            ],
            "translation" : [
                4.01663875579834,
                70.08985900878906,
                2.4490787982940674
            ]
        },
        {
            "mesh" : 3,
            "name" : "raptor_engine.gimbal_ring_13",
            "rotation" : [
                0,
                0.7926264405250549,
                0,
                0.6097075343132019
            ],
            "translation" : [
                1.3659412860870361,
                0.2219104766845703,
                1.9756932258605957
            ]
        }
    ],
    "materials" : [
        {
            "doubleSided" : true,
            "name" : "booster-steel",
            "pbrMetallicRoughness" : {
                "baseColorFactor" : [
                    0.800000011920929,
                    0.800000011920929,
                    0.800000011920929,
                    1
                ],
                "metallicRoughnessTexture" : {
                    "index" : 0
                }
            }
        },
        {
            "doubleSided" : true,
            "name" : "metal_raptor_bell",
            "pbrMetallicRoughness" : {
                "baseColorFactor" : [
                    0.05000000074505806,
                    0.05999999865889549,
                    0.05000000074505806,
                    1
                ],
                "roughnessFactor" : 0.6943734884262085
            }
        },
        {
            "doubleSided" : true,
            "name" : "metal",
            "pbrMetallicRoughness" : {
                "baseColorFactor" : [
                    0.6441287994384766,
                    0.6441287994384766,
                    0.6441287994384766,
                    1
                ],
                "roughnessFactor" : 0.7352941036224365
            }
        },
        {
            "doubleSided" : true,
            "name" : "stainless-steel",
            "pbrMetallicRoughness" : {
                "baseColorFactor" : [
                    0.800000011920929,
                    0.800000011920929,
                    0.800000011920929,
                    1
                ],
                "roughnessFactor" : 0.20731708407402039
            }
        }
    ],
    "meshes" : [
        {
            "name" : "Circle",
            "primitives" : [
                {
                    "attributes" : {
                        "POSITION" : 0,
                        "NORMAL" : 1,
                        "TEXCOORD_0" : 2
                    },
                    "indices" : 3,
                    "material" : 0
                }
            ]
        },
        {
            "name" : "Cylinder.009",
            "primitives" : [
                {
                    "attributes" : {
                        "POSITION" : 4,
                        "NORMAL" : 5,
                        "TEXCOORD_0" : 6
                    },
                    "indices" : 7,
                    "material" : 1
                },
                {
                    "attributes" : {
                        "POSITION" : 8,
                        "NORMAL" : 9,
                        "TEXCOORD_0" : 10
                    },
                    "indices" : 11,
                    "material" : 2
                }
            ]
        },
        {
            "name" : "Plane.015",
            "primitives" : [
                {
                    "attributes" : {
                        "POSITION" : 12,
                        "NORMAL" : 13,
                        "TEXCOORD_0" : 14
                    },
                    "indices" : 15,
                    "material" : 3
                }
            ]
        },
        {
            "name" : "Cylinder.031",
            "primitives" : [
                {
                    "attributes" : {
                        "POSITION" : 16,
                        "NORMAL" : 17,
                        "TEXCOORD_0" : 18
                    },
                    "indices" : 19,
                    "material" : 1
                },
                {
                    "attributes" : {
                        "POSITION" : 20,
                        "NORMAL" : 21,
                        "TEXCOORD_0" : 22
                    },
                    "indices" : 23,
                    "material" : 2
                }
            ]
        }
    ],
    "textures" : [
        {
            "sampler" : 0,
            "source" : 0
        }
    ],
    "images" : [
        {
            "bufferView" : 4,
            "mimeType" : "image/png",
            "name" : "starship_roughness"
        }
    ],
    "accessors" : [
        {
            "bufferView" : 0,
            "componentType" : 5126,
            "count" : 1029,
            "max" : [
                4.803805828094482,
                70,
                4.852713108062744
            ],
            "min" : [
                -4.803305625915527,
                0.6509562730789185,
                -4.853189945220947
            ],
            "type" : "VEC3"
        },
        {
            "bufferView" : 1,
            "componentType" : 5126,
            "count" : 1029,
            "type" : "VEC3"
        },
        {
            "bufferView" : 2,
            "componentType" : 5126,
            "count" : 1029,
            "type" : "VEC2"
        },
        {
            "bufferView" : 3,
            "componentType" : 5123,
            "count" : 2232,
            "type" : "SCALAR"
        },
        {
            "bufferView" : 5,
            "componentType" : 5126,
            "count" : 28699,
            "max" : [
                8.835636138916016,
                1.9813305139541626,
                3.4973137378692627
            ],
            "min" : [
                -0.8737389445304871,
                -0.207565575838089,
                -6.2120513916015625
            ],
            "type" : "VEC3"
        },
        {
            "bufferView" : 6,
            "componentType" : 5126,
            "count" : 28699,
            "type" : "VEC3"
        },
        {
            "bufferView" : 7,
            "componentType" : 5126,
            "count" : 28699,
            "type" : "VEC2"
        },
        {
            "bufferView" : 8,
            "componentType" : 5123,
            "count" : 140640,
            "type" : "SCALAR"
        },
        {
            "bufferView" : 9,
            "componentType" : 5126,
            "count" : 14120,
            "max" : [
                8.503375053405762,
                1.9856359958648682,
                3.1650497913360596
            ],
            "min" : [
                -0.541483998298645,
                1.0987961292266846,
                -5.879793167114258
            ],
            "type" : "VEC3"
        },
        {
            "bufferView" : 10,
            "componentType" : 5126,
            "count" : 14120,
            "type" : "VEC3"
        },
        {
            "bufferView" : 11,
            "componentType" : 5126,
            "count" : 14120,
            "type" : "VEC2"
        },
        {
            "bufferView" : 12,
            "componentType" : 5123,
            "count" : 71760,
            "type" : "SCALAR"
        },
        {
            "bufferView" : 13,
            "componentType" : 5126,
            "count" : 1772,
            "max" : [
                13.934516906738281,
                0.215667724609375,
                8.912763595581055
            ],
            "min" : [
                -4.525768280029297,
                -0.2677154541015625,
                -8.943605422973633
            ],
            "type" : "VEC3"
        },
        {
            "bufferView" : 14,
            "componentType" : 5126,
            "count" : 1772,
            "type" : "VEC3"
        },
        {
            "bufferView" : 15,
            "componentType" : 5126,
            "count" : 1772,
            "type" : "VEC2"
        },
        {
            "bufferView" : 16,
            "componentType" : 5123,
            "count" : 3816,
            "type" : "SCALAR"
        },
        {
            "bufferView" : 17,
            "componentType" : 5126,
            "count" : 18583,
            "max" : [
                5.265827178955078,
                1.9720951318740845,
                2.243255615234375
            ],
            "min" : [
                -0.7015346884727478,
                -0.207565575838089,
                -3.9117512702941895
            ],
            "type" : "VEC3"
        },
        {
            "bufferView" : 18,
            "componentType" : 5126,
            "count" : 18583,
            "type" : "VEC3"
        },
        {
            "bufferView" : 19,
            "componentType" : 5126,
            "count" : 18583,
            "type" : "VEC2"
        },
        {
            "bufferView" : 20,
            "componentType" : 5123,
            "count" : 91416,
            "type" : "SCALAR"
        },
        {
            "bufferView" : 21,
            "componentType" : 5126,
            "count" : 9178,
            "max" : [
                4.934915065765381,
                1.97640061378479,
                1.9109859466552734
            ],
            "min" : [
                -0.3706064522266388,
                1.0987961292266846,
                -3.5794734954833984
            ],
            "type" : "VEC3"
        },
        {
            "bufferView" : 22,
            "componentType" : 5126,
            "count" : 9178,
            "type" : "VEC3"
        },
        {
            "bufferView" : 23,
            "componentType" : 5126,
            "count" : 9178,
            "type" : "VEC2"
        },
        {
            "bufferView" : 24,
            "componentType" : 5123,
            "count" : 46644,
            "type" : "SCALAR"
        }
    ],
    "bufferViews" : [
        {
            "buffer" : 0,
            "byteLength" : 12348,
            "byteOffset" : 0
        },
        {
            "buffer" : 0,
            "byteLength" : 12348,
            "byteOffset" : 12348
        },
        {
            "buffer" : 0,
            "byteLength" : 8232,
            "byteOffset" : 24696
        },
        {
            "buffer" : 0,
            "byteLength" : 4464,
            "byteOffset" : 32928
        },
        {
            "buffer" : 0,
            "byteLength" : 63200,
            "byteOffset" : 37392
        },
        {
            "buffer" : 0,
            "byteLength" : 344388,
            "byteOffset" : 100592
        },
        {
            "buffer" : 0,
            "byteLength" : 344388,
            "byteOffset" : 444980
        },
        {
            "buffer" : 0,
            "byteLength" : 229592,
            "byteOffset" : 789368
        },
        {
            "buffer" : 0,
            "byteLength" : 281280,
            "byteOffset" : 1018960
        },
        {
            "buffer" : 0,
            "byteLength" : 169440,
            "byteOffset" : 1300240
        },
        {
            "buffer" : 0,
            "byteLength" : 169440,
            "byteOffset" : 1469680
        },
        {
            "buffer" : 0,
            "byteLength" : 112960,
            "byteOffset" : 1639120
        },
        {
            "buffer" : 0,
            "byteLength" : 143520,
            "byteOffset" : 1752080
        },
        {
            "buffer" : 0,
            "byteLength" : 21264,
            "byteOffset" : 1895600
        },
        {
            "buffer" : 0,
            "byteLength" : 21264,
            "byteOffset" : 1916864
        },
        {
            "buffer" : 0,
            "byteLength" : 14176,
            "byteOffset" : 1938128
        },
        {
            "buffer" : 0,
            "byteLength" : 7632,
            "byteOffset" : 1952304
        },
        {
            "buffer" : 0,
            "byteLength" : 222996,
            "byteOffset" : 1959936
        },
        {
            "buffer" : 0,
            "byteLength" : 222996,
            "byteOffset" : 2182932
        },
        {
            "buffer" : 0,
            "byteLength" : 148664,
            "byteOffset" : 2405928
        },
        {
            "buffer" : 0,
            "byteLength" : 182832,
            "byteOffset" : 2554592
        },
        {
            "buffer" : 0,
            "byteLength" : 110136,
            "byteOffset" : 2737424
        },
        {
            "buffer" : 0,
            "byteLength" : 110136,
            "byteOffset" : 2847560
        },
        {
            "buffer" : 0,
            "byteLength" : 73424,
            "byteOffset" : 2957696
        },
        {
            "buffer" : 0,
            "byteLength" : 93288,
            "byteOffset" : 3031120
        }
    ],
    "samplers" : [
        {
            "magFilter" : 9729,
            "minFilter" : 9987
        }
    ],
    "buffers" : [
        {
            "byteLength" : 3124408,
            "uri" : "data:application/octet-stream;base64,"
        }
    ]
}
