{
    "asset" : {
        "generator" : "Khronos glTF Blender I/O v1.6.16",
        "version" : "2.0"
    },
    "scene" : 0,
    "scenes" : [
        {
            "name" : "Scene",
            "nodes" : [
                2
            ]
        }
    ],
    "nodes" : [
        {
            "mesh" : 0,
            "name" : "arm_mesh_left",
            "rotation" : [
                0,
                -0.38159453868865967,
                0,
                0.9243298172950745
            ],
            "translation" : [
                1.0711369514465332,
                -9.288681030273438,
                -1.0961971282958984
            ]
        },
        {
            "mesh" : 1,
            "name" : "arm_mesh_right",
            "rotation" : [
                0,
                -0.38159453868865967,
                0,
                0.9243298172950745
            ],
            "translation" : [
                1.104677677154541,
                -9.288238525390625,
                -1.1128101348876953
            ]
        },
        {
            "children" : [
                0,
                1
            ],
            "mesh" : 2,
            "name" : "arms_support",
            "translation" : [
                6.232325553894043,
                79.87726593017578,
                -6.280637264251709
            ]
        }
    ],
    "materials" : [
        {
            "doubleSided" : true,
            "name" : "black_paint",
            "pbrMetallicRoughness" : {
                "baseColorFactor" : [
                    0.003931927960366011,
                    0.003935648128390312,
                    0.0038692473899573088,
                    1
                ],
                "roughnessFactor" : 0.17374223470687866
            }
        }
    ],
    "meshes" : [
        {
            "name" : "catch_arm_right.002",
            "primitives" : [
                {
                    "attributes" : {
                        "POSITION" : 0,
                        "NORMAL" : 1,
                        "TEXCOORD_0" : 2
                    },
                    "indices" : 3,
                    "material" : 0
                }
            ]
        },
        {
            "name" : "catch_arm_right.003",
            "primitives" : [
                {
                    "attributes" : {
                        "POSITION" : 4,
                        "NORMAL" : 5,
                        "TEXCOORD_0" : 6
                    },
                    "indices" : 7,
                    "material" : 0
                }
            ]
        },
        {
            "name" : "Cube.017",
            "primitives" : [
                {
                    "attributes" : {
                        "POSITION" : 8,
                        "NORMAL" : 9,
                        "TEXCOORD_0" : 10
                    },
                    "indices" : 11,
                    "material" : 0
                }
            ]
        }
    ],
    "accessors" : [
        {
            "bufferView" : 0,
            "componentType" : 5126,
            "count" : 1558,
            "max" : [
                0.2870650291442871,
                13.239669799804688,
                0.2815704345703125
            ],
            "min" : [
                -7.879538059234619,
                -0.29273223876953125,
                -33.68690490722656
            ],
            "type" : "VEC3"
        },
        {
            "bufferView" : 1,
            "componentType" : 5126,
            "count" : 1558,
            "type" : "VEC3"
        },
        {
            "bufferView" : 2,
            "componentType" : 5126,
            "count" : 1558,
            "type" : "VEC2"
        },
        {
            "bufferView" : 3,
            "componentType" : 5123,
            "count" : 4476,
            "type" : "SCALAR"
        },
        {
            "bufferView" : 4,
            "componentType" : 5126,
            "count" : 1558,
            "max" : [
                7.9223198890686035,
                13.239227294921875,
                0.31700706481933594
            ],
            "min" : [
                -0.24428272247314453,
                -0.29317474365234375,
                -33.651466369628906
            ],
            "type" : "VEC3"
        },
        {
            "bufferView" : 5,
            "componentType" : 5126,
            "count" : 1558,
            "type" : "VEC3"
        },
        {
            "bufferView" : 6,
            "componentType" : 5126,
            "count" : 1558,
            "type" : "VEC2"
        },
        {
            "bufferView" : 7,
            "componentType" : 5123,
            "count" : 4476,
            "type" : "SCALAR"
        },
        {
            "bufferView" : 8,
            "componentType" : 5126,
            "count" : 1012,
            "max" : [
                1.71455717086792,
                7.3245391845703125,
                13.403369903564453
            ],
            "min" : [
                -13.403369903564453,
                -10.478038787841797,
                -1.71455717086792
            ],
            "type" : "VEC3"
        },
        {
            "bufferView" : 9,
            "componentType" : 5126,
            "count" : 1012,
            "type" : "VEC3"
        },
        {
            "bufferView" : 10,
            "componentType" : 5126,
            "count" : 1012,
            "type" : "VEC2"
        },
        {
            "bufferView" : 11,
            "componentType" : 5123,
            "count" : 1428,
            "type" : "SCALAR"
        }
    ],
    "bufferViews" : [
        {
            "buffer" : 0,
            "byteLength" : 18696,
            "byteOffset" : 0
        },
        {
            "buffer" : 0,
            "byteLength" : 18696,
            "byteOffset" : 18696
        },
        {
            "buffer" : 0,
            "byteLength" : 12464,
            "byteOffset" : 37392
        },
        {
            "buffer" : 0,
            "byteLength" : 8952,
            "byteOffset" : 49856
        },
        {
            "buffer" : 0,
            "byteLength" : 18696,
            "byteOffset" : 58808
        },
        {
            "buffer" : 0,
            "byteLength" : 18696,
            "byteOffset" : 77504
        },
        {
            "buffer" : 0,
            "byteLength" : 12464,
            "byteOffset" : 96200
        },
        {
            "buffer" : 0,
            "byteLength" : 8952,
            "byteOffset" : 108664
        },
        {
            "buffer" : 0,
            "byteLength" : 12144,
            "byteOffset" : 117616
        },
        {
            "buffer" : 0,
            "byteLength" : 12144,
            "byteOffset" : 129760
        },
        {
            "buffer" : 0,
            "byteLength" : 8096,
            "byteOffset" : 141904
        },
        {
            "buffer" : 0,
            "byteLength" : 2856,
            "byteOffset" : 150000
        }
    ],
    "buffers" : [
        {
            "byteLength" : 152856,
            "uri" : "data:application/octet-stream;base64,"
        }
    ]
}
