{
    "asset" : {
        "generator" : "Khronos glTF Blender I/O v1.5.17",
        "version" : "2.0"
    },
    "scene" : 0,
    "scenes" : [
        {
            "name" : "Scene",
            "nodes" : [
                0
            ]
        }
    ],
    "nodes" : [
        {
            "mesh" : 0,
            "name" : "elevator_bottom",
            "rotation" : [
                0,
                0.7071068286895752,
                0,
                -0.7071068286895752
            ],
            "scale" : [
                0.9739499688148499,
                0.9739499688148499,
                0.9739499688148499
            ],
            "translation" : [
                0,
                2.7964985370635986,
                -0.017869023606181145
            ]
        }
    ],
    "materials" : [
        {
            "doubleSided" : true,
            "name" : "metal",
            "pbrMetallicRoughness" : {
                "baseColorFactor" : [
                    0.6441287994384766,
                    0.6441287994384766,
                    0.6441287994384766,
                    1
                ],
                "roughnessFactor" : 0.7352941036224365
            }
        }
    ],
    "meshes" : [
        {
            "name" : "Cube.009",
            "primitives" : [
                {
                    "attributes" : {
                        "POSITION" : 0,
                        "NORMAL" : 1,
                        "TEXCOORD_0" : 2
                    },
                    "indices" : 3,
                    "material" : 0
                }
            ]
        }
    ],
    "accessors" : [
        {
            "bufferView" : 0,
            "componentType" : 5126,
            "count" : 470,
            "max" : [
                0.9355449676513672,
                0.8826518058776855,
                0.8625195026397705
            ],
            "min" : [
                -0.9366230964660645,
                -1.5577154159545898,
                -0.8625195026397705
            ],
            "type" : "VEC3"
        },
        {
            "bufferView" : 1,
            "componentType" : 5126,
            "count" : 470,
            "type" : "VEC3"
        },
        {
            "bufferView" : 2,
            "componentType" : 5126,
            "count" : 470,
            "type" : "VEC2"
        },
        {
            "bufferView" : 3,
            "componentType" : 5123,
            "count" : 708,
            "type" : "SCALAR"
        }
    ],
    "bufferViews" : [
        {
            "buffer" : 0,
            "byteLength" : 5640,
            "byteOffset" : 0
        },
        {
            "buffer" : 0,
            "byteLength" : 5640,
            "byteOffset" : 5640
        },
        {
            "buffer" : 0,
            "byteLength" : 3760,
            "byteOffset" : 11280
        },
        {
            "buffer" : 0,
            "byteLength" : 1416,
            "byteOffset" : 15040
        }
    ],
    "buffers" : [
        {
            "byteLength" : 16456,
            "uri" : "data:application/octet-stream;base64,"
        }
    ]
}
