{
    "asset" : {
        "generator" : "Khronos glTF Blender I/O v1.5.17",
        "version" : "2.0"
    },
    "scene" : 0,
    "scenes" : [
        {
            "name" : "Scene",
            "nodes" : [
                0,
                1
            ]
        }
    ],
    "nodes" : [
        {
            "mesh" : 0,
            "name" : "elevator_cage"
        },
        {
            "mesh" : 1,
            "name" : "elevator_cage_bottom",
            "translation" : [
                0,
                0,
                0.1609172224998474
            ]
        }
    ],
    "materials" : [
        {
            "doubleSided" : true,
            "name" : "metal",
            "pbrMetallicRoughness" : {
                "baseColorFactor" : [
                    0.6441287994384766,
                    0.6441287994384766,
                    0.6441287994384766,
                    1
                ],
                "roughnessFactor" : 0.7352941036224365
            }
        }
    ],
    "meshes" : [
        {
            "name" : "Cube.003",
            "primitives" : [
                {
                    "attributes" : {
                        "POSITION" : 0,
                        "NORMAL" : 1,
                        "TEXCOORD_0" : 2
                    },
                    "indices" : 3,
                    "material" : 0
                }
            ]
        },
        {
            "name" : "Cube.007",
            "primitives" : [
                {
                    "attributes" : {
                        "POSITION" : 4,
                        "NORMAL" : 5,
                        "TEXCOORD_0" : 6
                    },
                    "indices" : 7
                }
            ]
        }
    ],
    "accessors" : [
        {
            "bufferView" : 0,
            "componentType" : 5126,
            "count" : 156,
            "max" : [
                0.9366230964660645,
                112.66012573242188,
                3.1690783500671387
            ],
            "min" : [
                -0.9313433766365051,
                1.274702548980713,
                -0.8808664083480835
            ],
            "type" : "VEC3"
        },
        {
            "bufferView" : 1,
            "componentType" : 5126,
            "count" : 156,
            "type" : "VEC3"
        },
        {
            "bufferView" : 2,
            "componentType" : 5126,
            "count" : 156,
            "type" : "VEC2"
        },
        {
            "bufferView" : 3,
            "componentType" : 5123,
            "count" : 252,
            "type" : "SCALAR"
        },
        {
            "bufferView" : 4,
            "componentType" : 5126,
            "count" : 32,
            "max" : [
                0.8866230845451355,
                3.1694116592407227,
                0.8521651029586792
            ],
            "min" : [
                -0.8866230845451355,
                1.3100566864013672,
                0.8088183403015137
            ],
            "type" : "VEC3"
        },
        {
            "bufferView" : 5,
            "componentType" : 5126,
            "count" : 32,
            "type" : "VEC3"
        },
        {
            "bufferView" : 6,
            "componentType" : 5126,
            "count" : 32,
            "type" : "VEC2"
        },
        {
            "bufferView" : 7,
            "componentType" : 5123,
            "count" : 60,
            "type" : "SCALAR"
        }
    ],
    "bufferViews" : [
        {
            "buffer" : 0,
            "byteLength" : 1872,
            "byteOffset" : 0
        },
        {
            "buffer" : 0,
            "byteLength" : 1872,
            "byteOffset" : 1872
        },
        {
            "buffer" : 0,
            "byteLength" : 1248,
            "byteOffset" : 3744
        },
        {
            "buffer" : 0,
            "byteLength" : 504,
            "byteOffset" : 4992
        },
        {
            "buffer" : 0,
            "byteLength" : 384,
            "byteOffset" : 5496
        },
        {
            "buffer" : 0,
            "byteLength" : 384,
            "byteOffset" : 5880
        },
        {
            "buffer" : 0,
            "byteLength" : 256,
            "byteOffset" : 6264
        },
        {
            "buffer" : 0,
            "byteLength" : 120,
            "byteOffset" : 6520
        }
    ],
    "buffers" : [
        {
            "byteLength" : 6640,
            "uri" : "data:application/octet-stream;base64,"
        }
    ]
}
