{
    "asset" : {
        "generator" : "Khronos glTF Blender I/O v1.6.16",
        "version" : "2.0"
    },
    "scene" : 0,
    "scenes" : [
        {
            "name" : "Scene",
            "nodes" : [
                2
            ]
        }
    ],
    "nodes" : [
        {
            "mesh" : 0,
            "name" : "feet",
            "scale" : [
                0.8712849617004395,
                0.8712849617004395,
                0.8712849617004395
            ],
            "translation" : [
                -3.3236885883525247e-06,
                -2.86102294921875e-06,
                0
            ]
        },
        {
            "mesh" : 1,
            "name" : "inner_ring",
            "scale" : [
                5.9261322021484375,
                5.9261322021484375,
                5.9261322021484375
            ],
            "translation" : [
                -3.3236885883525247e-06,
                0.22960662841796875,
                0
            ]
        },
        {
            "children" : [
                0,
                1
            ],
            "mesh" : 2,
            "name" : "orbital_stand",
            "scale" : [
                1.1477299928665161,
                1.1477299928665161,
                1.1477299928665161
            ],
            "translation" : [
                0,
                17.989999771118164,
                0
            ]
        }
    ],
    "materials" : [
        {
            "doubleSided" : true,
            "name" : "metal_gray_blue",
            "pbrMetallicRoughness" : {
                "baseColorFactor" : [
                    0.2823529541492462,
                    0.3294117748737335,
                    0.3764705955982208,
                    1
                ],
                "roughnessFactor" : 0.9010149836540222
            }
        }
    ],
    "meshes" : [
        {
            "name" : "Circle.028",
            "primitives" : [
                {
                    "attributes" : {
                        "POSITION" : 0,
                        "NORMAL" : 1,
                        "TEXCOORD_0" : 2
                    },
                    "indices" : 3,
                    "material" : 0
                }
            ]
        },
        {
            "name" : "Circle.027",
            "primitives" : [
                {
                    "attributes" : {
                        "POSITION" : 4,
                        "NORMAL" : 5,
                        "TEXCOORD_0" : 6
                    },
                    "indices" : 7,
                    "material" : 0
                }
            ]
        },
        {
            "name" : "Circle.002",
            "primitives" : [
                {
                    "attributes" : {
                        "POSITION" : 8,
                        "NORMAL" : 9,
                        "TEXCOORD_0" : 10
                    },
                    "indices" : 11,
                    "material" : 0
                }
            ]
        }
    ],
    "accessors" : [
        {
            "bufferView" : 0,
            "componentType" : 5126,
            "count" : 2048,
            "max" : [
                10.02690315246582,
                0.30907249450683594,
                10.026899337768555
            ],
            "min" : [
                -10.026896476745605,
                -17.987651824951172,
                -10.026906967163086
            ],
            "type" : "VEC3"
        },
        {
            "bufferView" : 1,
            "componentType" : 5126,
            "count" : 2048,
            "type" : "VEC3"
        },
        {
            "bufferView" : 2,
            "componentType" : 5126,
            "count" : 2048,
            "type" : "VEC2"
        },
        {
            "bufferView" : 3,
            "componentType" : 5123,
            "count" : 4512,
            "type" : "SCALAR"
        },
        {
            "bufferView" : 4,
            "componentType" : 5126,
            "count" : 256,
            "max" : [
                1,
                0,
                1
            ],
            "min" : [
                -1,
                -0.18744754791259766,
                -1
            ],
            "type" : "VEC3"
        },
        {
            "bufferView" : 5,
            "componentType" : 5126,
            "count" : 256,
            "type" : "VEC3"
        },
        {
            "bufferView" : 6,
            "componentType" : 5126,
            "count" : 256,
            "type" : "VEC2"
        },
        {
            "bufferView" : 7,
            "componentType" : 5123,
            "count" : 768,
            "type" : "SCALAR"
        },
        {
            "bufferView" : 8,
            "componentType" : 5126,
            "count" : 2357,
            "max" : [
                7.776005268096924,
                3.025028705596924,
                7.855967044830322
            ],
            "min" : [
                -7.776007652282715,
                0.20297002792358398,
                -7.855968952178955
            ],
            "type" : "VEC3"
        },
        {
            "bufferView" : 9,
            "componentType" : 5126,
            "count" : 2357,
            "type" : "VEC3"
        },
        {
            "bufferView" : 10,
            "componentType" : 5126,
            "count" : 2357,
            "type" : "VEC2"
        },
        {
            "bufferView" : 11,
            "componentType" : 5123,
            "count" : 5808,
            "type" : "SCALAR"
        }
    ],
    "bufferViews" : [
        {
            "buffer" : 0,
            "byteLength" : 24576,
            "byteOffset" : 0
        },
        {
            "buffer" : 0,
            "byteLength" : 24576,
            "byteOffset" : 24576
        },
        {
            "buffer" : 0,
            "byteLength" : 16384,
            "byteOffset" : 49152
        },
        {
            "buffer" : 0,
            "byteLength" : 9024,
            "byteOffset" : 65536
        },
        {
            "buffer" : 0,
            "byteLength" : 3072,
            "byteOffset" : 74560
        },
        {
            "buffer" : 0,
            "byteLength" : 3072,
            "byteOffset" : 77632
        },
        {
            "buffer" : 0,
            "byteLength" : 2048,
            "byteOffset" : 80704
        },
        {
            "buffer" : 0,
            "byteLength" : 1536,
            "byteOffset" : 82752
        },
        {
            "buffer" : 0,
            "byteLength" : 28284,
            "byteOffset" : 84288
        },
        {
            "buffer" : 0,
            "byteLength" : 28284,
            "byteOffset" : 112572
        },
        {
            "buffer" : 0,
            "byteLength" : 18856,
            "byteOffset" : 140856
        },
        {
            "buffer" : 0,
            "byteLength" : 11616,
            "byteOffset" : 159712
        }
    ],
    "buffers" : [
        {
            "byteLength" : 171328,
            "uri" : "data:application/octet-stream;base64,"
        }
    ]
}
