{
    "asset" : {
        "generator" : "Khronos glTF Blender I/O v1.8.19",
        "version" : "2.0"
    },
    "scene" : 0,
    "scenes" : [
        {
            "name" : "Scene",
            "nodes" : [
                2,
                5
            ]
        }
    ],
    "nodes" : [
        {
            "mesh" : 0,
            "name" : "feet.001",
            "scale" : [
                0.8712849617004395,
                0.8712849617004395,
                0.8712849617004395
            ],
            "translation" : [
                -3.3236885883525247e-06,
                -2.86102294921875e-06,
                0
            ]
        },
        {
            "mesh" : 1,
            "name" : "inner_ring",
            "scale" : [
                0.8712849617004395,
                0.8712849617004395,
                0.8712849617004395
            ],
            "translation" : [
                -3.3236885883525247e-06,
                0.22960662841796875,
                0
            ]
        },
        {
            "children" : [
                0,
                1
            ],
            "mesh" : 2,
            "name" : "orbital_stand",
            "scale" : [
                1.1477299928665161,
                1.1477299928665161,
                1.1477299928665161
            ],
            "translation" : [
                0,
                17.989999771118164,
                0
            ]
        },
        {
            "mesh" : 3,
            "name" : "cover",
            "rotation" : [
                -0.010732841677963734,
                0,
                0,
                0.999942421913147
            ],
            "translation" : [
                0.009364843368530273,
                1.4087200164794922,
                -0.567141056060791
            ]
        },
        {
            "mesh" : 4,
            "name" : "fuel_port",
            "rotation" : [
                0,
                -0.7071068286895752,
                0,
                0.7071068286895752
            ],
            "translation" : [
                -0.0015844488516449928,
                0.6115837097167969,
                1.5876684188842773
            ]
        },
        {
            "children" : [
                3,
                4
            ],
            "mesh" : 5,
            "name" : "qd-booster",
            "translation" : [
                -0.007265567779541016,
                22.515151977539062,
                -7.2588348388671875
            ]
        }
    ],
    "materials" : [
        {
            "doubleSided" : true,
            "name" : "metal_gray_blue",
            "pbrMetallicRoughness" : {
                "baseColorFactor" : [
                    0.2823529541492462,
                    0.3294117748737335,
                    0.3764705955982208,
                    1
                ],
                "roughnessFactor" : 0.9010149836540222
            }
        },
        {
            "doubleSided" : true,
            "name" : "booster-steel",
            "pbrMetallicRoughness" : {
                "baseColorFactor" : [
                    0.800000011920929,
                    0.800000011920929,
                    0.800000011920929,
                    1
                ]
            }
        }
    ],
    "meshes" : [
        {
            "name" : "Circle.028",
            "primitives" : [
                {
                    "attributes" : {
                        "POSITION" : 0,
                        "NORMAL" : 1,
                        "TEXCOORD_0" : 2
                    },
                    "indices" : 3,
                    "material" : 0
                }
            ]
        },
        {
            "name" : "Circle.027",
            "primitives" : [
                {
                    "attributes" : {
                        "POSITION" : 4,
                        "NORMAL" : 5,
                        "TEXCOORD_0" : 6
                    },
                    "indices" : 7,
                    "material" : 0
                }
            ]
        },
        {
            "name" : "Circle.002",
            "primitives" : [
                {
                    "attributes" : {
                        "POSITION" : 8,
                        "NORMAL" : 9,
                        "TEXCOORD_0" : 10
                    },
                    "indices" : 11,
                    "material" : 0
                }
            ]
        },
        {
            "name" : "Cube.059",
            "primitives" : [
                {
                    "attributes" : {
                        "POSITION" : 12,
                        "NORMAL" : 13,
                        "TEXCOORD_0" : 14
                    },
                    "indices" : 15
                }
            ]
        },
        {
            "name" : "Circle.013",
            "primitives" : [
                {
                    "attributes" : {
                        "POSITION" : 16,
                        "NORMAL" : 17,
                        "TEXCOORD_0" : 18
                    },
                    "indices" : 19,
                    "material" : 1
                }
            ]
        },
        {
            "name" : "Cube.058",
            "primitives" : [
                {
                    "attributes" : {
                        "POSITION" : 20,
                        "NORMAL" : 21,
                        "TEXCOORD_0" : 22
                    },
                    "indices" : 23
                }
            ]
        }
    ],
    "accessors" : [
        {
            "bufferView" : 0,
            "componentType" : 5126,
            "count" : 2048,
            "max" : [
                10.02690315246582,
                0.30907249450683594,
                10.026899337768555
            ],
            "min" : [
                -10.026896476745605,
                -17.987651824951172,
                -10.026906967163086
            ],
            "type" : "VEC3"
        },
        {
            "bufferView" : 1,
            "componentType" : 5126,
            "count" : 2048,
            "type" : "VEC3"
        },
        {
            "bufferView" : 2,
            "componentType" : 5126,
            "count" : 2048,
            "type" : "VEC2"
        },
        {
            "bufferView" : 3,
            "componentType" : 5123,
            "count" : 4512,
            "type" : "SCALAR"
        },
        {
            "bufferView" : 4,
            "componentType" : 5126,
            "count" : 512,
            "max" : [
                6.801600456237793,
                0,
                6.801600456237793
            ],
            "min" : [
                -6.801600456237793,
                -1.2749433517456055,
                -6.801600456237793
            ],
            "type" : "VEC3"
        },
        {
            "bufferView" : 5,
            "componentType" : 5126,
            "count" : 512,
            "type" : "VEC3"
        },
        {
            "bufferView" : 6,
            "componentType" : 5126,
            "count" : 512,
            "type" : "VEC2"
        },
        {
            "bufferView" : 7,
            "componentType" : 5123,
            "count" : 1536,
            "type" : "SCALAR"
        },
        {
            "bufferView" : 8,
            "componentType" : 5126,
            "count" : 5879,
            "max" : [
                7.776005268096924,
                3.025028705596924,
                7.855967044830322
            ],
            "min" : [
                -7.776007652282715,
                0.20305655896663666,
                -7.855968952178955
            ],
            "type" : "VEC3"
        },
        {
            "bufferView" : 9,
            "componentType" : 5126,
            "count" : 5879,
            "type" : "VEC3"
        },
        {
            "bufferView" : 10,
            "componentType" : 5126,
            "count" : 5879,
            "type" : "VEC2"
        },
        {
            "bufferView" : 11,
            "componentType" : 5123,
            "count" : 10560,
            "type" : "SCALAR"
        },
        {
            "bufferView" : 12,
            "componentType" : 5126,
            "count" : 56,
            "max" : [
                1.1766716241836548,
                0.09993167221546173,
                2.5321106910705566
            ],
            "min" : [
                -1.1766716241836548,
                -1.7676417827606201,
                -0.7579712867736816
            ],
            "type" : "VEC3"
        },
        {
            "bufferView" : 13,
            "componentType" : 5126,
            "count" : 56,
            "type" : "VEC3"
        },
        {
            "bufferView" : 14,
            "componentType" : 5126,
            "count" : 56,
            "type" : "VEC2"
        },
        {
            "bufferView" : 15,
            "componentType" : 5123,
            "count" : 84,
            "type" : "SCALAR"
        },
        {
            "bufferView" : 16,
            "componentType" : 5126,
            "count" : 84,
            "max" : [
                0.15741512179374695,
                0.6037886142730713,
                0.7607804536819458
            ],
            "min" : [
                -1.2843549251556396,
                -0.789642333984375,
                -0.7600930333137512
            ],
            "type" : "VEC3"
        },
        {
            "bufferView" : 17,
            "componentType" : 5126,
            "count" : 84,
            "type" : "VEC3"
        },
        {
            "bufferView" : 18,
            "componentType" : 5126,
            "count" : 84,
            "type" : "VEC2"
        },
        {
            "bufferView" : 19,
            "componentType" : 5123,
            "count" : 132,
            "type" : "SCALAR"
        },
        {
            "bufferView" : 20,
            "componentType" : 5126,
            "count" : 24,
            "max" : [
                1,
                1.2931349277496338,
                1.3085418939590454
            ],
            "min" : [
                -1,
                -1,
                -1
            ],
            "type" : "VEC3"
        },
        {
            "bufferView" : 21,
            "componentType" : 5126,
            "count" : 24,
            "type" : "VEC3"
        },
        {
            "bufferView" : 22,
            "componentType" : 5126,
            "count" : 24,
            "type" : "VEC2"
        },
        {
            "bufferView" : 23,
            "componentType" : 5123,
            "count" : 36,
            "type" : "SCALAR"
        }
    ],
    "bufferViews" : [
        {
            "buffer" : 0,
            "byteLength" : 24576,
            "byteOffset" : 0
        },
        {
            "buffer" : 0,
            "byteLength" : 24576,
            "byteOffset" : 24576
        },
        {
            "buffer" : 0,
            "byteLength" : 16384,
            "byteOffset" : 49152
        },
        {
            "buffer" : 0,
            "byteLength" : 9024,
            "byteOffset" : 65536
        },
        {
            "buffer" : 0,
            "byteLength" : 6144,
            "byteOffset" : 74560
        },
        {
            "buffer" : 0,
            "byteLength" : 6144,
            "byteOffset" : 80704
        },
        {
            "buffer" : 0,
            "byteLength" : 4096,
            "byteOffset" : 86848
        },
        {
            "buffer" : 0,
            "byteLength" : 3072,
            "byteOffset" : 90944
        },
        {
            "buffer" : 0,
            "byteLength" : 70548,
            "byteOffset" : 94016
        },
        {
            "buffer" : 0,
            "byteLength" : 70548,
            "byteOffset" : 164564
        },
        {
            "buffer" : 0,
            "byteLength" : 47032,
            "byteOffset" : 235112
        },
        {
            "buffer" : 0,
            "byteLength" : 21120,
            "byteOffset" : 282144
        },
        {
            "buffer" : 0,
            "byteLength" : 672,
            "byteOffset" : 303264
        },
        {
            "buffer" : 0,
            "byteLength" : 672,
            "byteOffset" : 303936
        },
        {
            "buffer" : 0,
            "byteLength" : 448,
            "byteOffset" : 304608
        },
        {
            "buffer" : 0,
            "byteLength" : 168,
            "byteOffset" : 305056
        },
        {
            "buffer" : 0,
            "byteLength" : 1008,
            "byteOffset" : 305224
        },
        {
            "buffer" : 0,
            "byteLength" : 1008,
            "byteOffset" : 306232
        },
        {
            "buffer" : 0,
            "byteLength" : 672,
            "byteOffset" : 307240
        },
        {
            "buffer" : 0,
            "byteLength" : 264,
            "byteOffset" : 307912
        },
        {
            "buffer" : 0,
            "byteLength" : 288,
            "byteOffset" : 308176
        },
        {
            "buffer" : 0,
            "byteLength" : 288,
            "byteOffset" : 308464
        },
        {
            "buffer" : 0,
            "byteLength" : 192,
            "byteOffset" : 308752
        },
        {
            "buffer" : 0,
            "byteLength" : 72,
            "byteOffset" : 308944
        }
    ],
    "buffers" : [
        {
            "byteLength" : 309016,
            "uri" : "data:application/octet-stream;base64,"
        }
    ]
}
