{
    "asset" : {
        "generator" : "Khronos glTF Blender I/O v1.6.16",
        "version" : "2.0"
    },
    "scene" : 0,
    "scenes" : [
        {
            "name" : "Scene",
            "nodes" : [
                3,
                4
            ]
        }
    ],
    "nodes" : [
        {
            "mesh" : 0,
            "name" : "grab_arm_left",
            "translation" : [
                2.5381126403808594,
                0,
                -6.180788040161133
            ]
        },
        {
            "mesh" : 1,
            "name" : "grab_arm_right",
            "translation" : [
                4.397403717041016,
                0,
                -4.254844665527344
            ]
        },
        {
            "children" : [
                0,
                1
            ],
            "mesh" : 2,
            "name" : "arm_extender",
            "translation" : [
                9.17164421081543,
                2.253326416015625,
                -14.12913703918457
            ]
        },
        {
            "children" : [
                2
            ],
            "mesh" : 3,
            "name" : "arm",
            "translation" : [
                -0.020950675010681152,
                89.95916748046875,
                6.549489498138428
            ]
        },
        {
            "mesh" : 4,
            "name" : "support2",
            "translation" : [
                -2.5530800819396973,
                85.54273986816406,
                5.982367515563965
            ]
        }
    ],
    "meshes" : [
        {
            "name" : "Cube.029",
            "primitives" : [
                {
                    "attributes" : {
                        "POSITION" : 0,
                        "NORMAL" : 1,
                        "TEXCOORD_0" : 2
                    },
                    "indices" : 3
                }
            ]
        },
        {
            "name" : "Cube.027",
            "primitives" : [
                {
                    "attributes" : {
                        "POSITION" : 4,
                        "NORMAL" : 5,
                        "TEXCOORD_0" : 6
                    },
                    "indices" : 7
                }
            ]
        },
        {
            "name" : "Cube.026",
            "primitives" : [
                {
                    "attributes" : {
                        "POSITION" : 8,
                        "NORMAL" : 9,
                        "TEXCOORD_0" : 10
                    },
                    "indices" : 11
                }
            ]
        },
        {
            "name" : "Cube.018",
            "primitives" : [
                {
                    "attributes" : {
                        "POSITION" : 12,
                        "NORMAL" : 13,
                        "TEXCOORD_0" : 14
                    },
                    "indices" : 15
                }
            ]
        },
        {
            "name" : "Cube.020",
            "primitives" : [
                {
                    "attributes" : {
                        "POSITION" : 16,
                        "NORMAL" : 17,
                        "TEXCOORD_0" : 18
                    },
                    "indices" : 19
                }
            ]
        }
    ],
    "accessors" : [
        {
            "bufferView" : 0,
            "componentType" : 5126,
            "count" : 200,
            "max" : [
                2.2451486587524414,
                -3.5399322509765625,
                -0.024867109954357147
            ],
            "min" : [
                -0.38549625873565674,
                -3.9915435314178467,
                -6.7680463790893555
            ],
            "type" : "VEC3"
        },
        {
            "bufferView" : 1,
            "componentType" : 5126,
            "count" : 200,
            "type" : "VEC3"
        },
        {
            "bufferView" : 2,
            "componentType" : 5126,
            "count" : 200,
            "type" : "VEC2"
        },
        {
            "bufferView" : 3,
            "componentType" : 5123,
            "count" : 276,
            "type" : "SCALAR"
        },
        {
            "bufferView" : 4,
            "componentType" : 5126,
            "count" : 200,
            "max" : [
                6.79690408706665,
                -3.5399322509765625,
                0.4473564028739929
            ],
            "min" : [
                0.024586576968431473,
                -3.9915435314178467,
                -2.1524081230163574
            ],
            "type" : "VEC3"
        },
        {
            "bufferView" : 5,
            "componentType" : 5126,
            "count" : 200,
            "type" : "VEC3"
        },
        {
            "bufferView" : 6,
            "componentType" : 5126,
            "count" : 200,
            "type" : "VEC2"
        },
        {
            "bufferView" : 7,
            "componentType" : 5123,
            "count" : 276,
            "type" : "SCALAR"
        },
        {
            "bufferView" : 8,
            "componentType" : 5126,
            "count" : 180,
            "max" : [
                5.399961471557617,
                1.436643123626709,
                -0.01071908324956894
            ],
            "min" : [
                -1.867458701133728,
                -3.99220871925354,
                -7.1179094314575195
            ],
            "type" : "VEC3"
        },
        {
            "bufferView" : 9,
            "componentType" : 5126,
            "count" : 180,
            "type" : "VEC3"
        },
        {
            "bufferView" : 10,
            "componentType" : 5126,
            "count" : 180,
            "type" : "VEC2"
        },
        {
            "bufferView" : 11,
            "componentType" : 5123,
            "count" : 252,
            "type" : "SCALAR"
        },
        {
            "bufferView" : 12,
            "componentType" : 5126,
            "count" : 312,
            "max" : [
                9.436104774475098,
                4.608370780944824,
                2.9831886291503906
            ],
            "min" : [
                -0.2878381907939911,
                -4.608623504638672,
                -14.121185302734375
            ],
            "type" : "VEC3"
        },
        {
            "bufferView" : 13,
            "componentType" : 5126,
            "count" : 312,
            "type" : "VEC3"
        },
        {
            "bufferView" : 14,
            "componentType" : 5126,
            "count" : 312,
            "type" : "VEC2"
        },
        {
            "bufferView" : 15,
            "componentType" : 5123,
            "count" : 456,
            "type" : "SCALAR"
        },
        {
            "bufferView" : 16,
            "componentType" : 5126,
            "count" : 360,
            "max" : [
                2.662999153137207,
                9.033281326293945,
                0.7037393450737
            ],
            "min" : [
                -2.067883014678955,
                -0.19376148283481598,
                -0.6366099715232849
            ],
            "type" : "VEC3"
        },
        {
            "bufferView" : 17,
            "componentType" : 5126,
            "count" : 360,
            "type" : "VEC3"
        },
        {
            "bufferView" : 18,
            "componentType" : 5126,
            "count" : 360,
            "type" : "VEC2"
        },
        {
            "bufferView" : 19,
            "componentType" : 5123,
            "count" : 504,
            "type" : "SCALAR"
        }
    ],
    "bufferViews" : [
        {
            "buffer" : 0,
            "byteLength" : 2400,
            "byteOffset" : 0
        },
        {
            "buffer" : 0,
            "byteLength" : 2400,
            "byteOffset" : 2400
        },
        {
            "buffer" : 0,
            "byteLength" : 1600,
            "byteOffset" : 4800
        },
        {
            "buffer" : 0,
            "byteLength" : 552,
            "byteOffset" : 6400
        },
        {
            "buffer" : 0,
            "byteLength" : 2400,
            "byteOffset" : 6952
        },
        {
            "buffer" : 0,
            "byteLength" : 2400,
            "byteOffset" : 9352
        },
        {
            "buffer" : 0,
            "byteLength" : 1600,
            "byteOffset" : 11752
        },
        {
            "buffer" : 0,
            "byteLength" : 552,
            "byteOffset" : 13352
        },
        {
            "buffer" : 0,
            "byteLength" : 2160,
            "byteOffset" : 13904
        },
        {
            "buffer" : 0,
            "byteLength" : 2160,
            "byteOffset" : 16064
        },
        {
            "buffer" : 0,
            "byteLength" : 1440,
            "byteOffset" : 18224
        },
        {
            "buffer" : 0,
            "byteLength" : 504,
            "byteOffset" : 19664
        },
        {
            "buffer" : 0,
            "byteLength" : 3744,
            "byteOffset" : 20168
        },
        {
            "buffer" : 0,
            "byteLength" : 3744,
            "byteOffset" : 23912
        },
        {
            "buffer" : 0,
            "byteLength" : 2496,
            "byteOffset" : 27656
        },
        {
            "buffer" : 0,
            "byteLength" : 912,
            "byteOffset" : 30152
        },
        {
            "buffer" : 0,
            "byteLength" : 4320,
            "byteOffset" : 31064
        },
        {
            "buffer" : 0,
            "byteLength" : 4320,
            "byteOffset" : 35384
        },
        {
            "buffer" : 0,
            "byteLength" : 2880,
            "byteOffset" : 39704
        },
        {
            "buffer" : 0,
            "byteLength" : 1008,
            "byteOffset" : 42584
        }
    ],
    "buffers" : [
        {
            "byteLength" : 43592,
            "uri" : "data:application/octet-stream;base64,"
        }
    ]
}
