{
    "asset" : {
        "generator" : "Khronos glTF Blender I/O v1.7.33",
        "version" : "2.0"
    },
    "scene" : 0,
    "scenes" : [
        {
            "name" : "Scene",
            "nodes" : [
                0
            ]
        }
    ],
    "nodes" : [
        {
            "mesh" : 0,
            "name" : "chair.001",
            "rotation" : [
                0,
                0,
                0.006453949026763439,
                0.9999791979789734
            ]
        }
    ],
    "meshes" : [
        {
            "name" : "Cube.049",
            "primitives" : [
                {
                    "attributes" : {
                        "POSITION" : 0,
                        "NORMAL" : 1,
                        "TEXCOORD_0" : 2
                    },
                    "indices" : 3
                }
            ]
        }
    ],
    "accessors" : [
        {
            "bufferView" : 0,
            "componentType" : 5126,
            "count" : 877,
            "max" : [
                0.20049415528774261,
                1.3325600624084473,
                0.3588552474975586
            ],
            "min" : [
                -0.7854949235916138,
                -0.005626678466796875,
                -0.35114797949790955
            ],
            "type" : "VEC3"
        },
        {
            "bufferView" : 1,
            "componentType" : 5126,
            "count" : 877,
            "type" : "VEC3"
        },
        {
            "bufferView" : 2,
            "componentType" : 5126,
            "count" : 877,
            "type" : "VEC2"
        },
        {
            "bufferView" : 3,
            "componentType" : 5123,
            "count" : 2022,
            "type" : "SCALAR"
        }
    ],
    "bufferViews" : [
        {
            "buffer" : 0,
            "byteLength" : 10524,
            "byteOffset" : 0
        },
        {
            "buffer" : 0,
            "byteLength" : 10524,
            "byteOffset" : 10524
        },
        {
            "buffer" : 0,
            "byteLength" : 7016,
            "byteOffset" : 21048
        },
        {
            "buffer" : 0,
            "byteLength" : 4044,
            "byteOffset" : 28064
        }
    ],
    "buffers" : [
        {
            "byteLength" : 32108,
            "uri" : "data:application/octet-stream;base64,"
        }
    ]
}
