{
    "asset" : {
        "generator" : "Khronos glTF Blender I/O v1.7.33",
        "version" : "2.0"
    },
    "scene" : 0,
    "scenes" : [
        {
            "name" : "Scene",
            "nodes" : [
                0,
                1,
                2,
                3,
                4,
                5,
                6,
                7,
                8
            ]
        }
    ],
    "nodes" : [
        {
            "mesh" : 0,
            "name" : "inside_walls.001",
            "rotation" : [
                0,
                0.7071068286895752,
                0,
                0.7071068286895752
            ],
            "translation" : [
                0.0023497433867305517,
                42.26490020751953,
                0.0072289640083909035
            ]
        },
        {
            "mesh" : 1,
            "name" : "EVA_walls.001",
            "rotation" : [
                0,
                0.7071068286895752,
                0,
                0.7071068286895752
            ],
            "translation" : [
                0.0023497433867305517,
                42.26490020751953,
                0.0072289640083909035
            ]
        },
        {
            "mesh" : 2,
            "name" : "inside",
            "scale" : [
                1.2827348709106445,
                1,
                1.2827348709106445
            ],
            "translation" : [
                0,
                31.17999839782715,
                0
            ]
        },
        {
            "mesh" : 3,
            "name" : "container",
            "rotation" : [
                0,
                -0.0009723955881781876,
                0,
                1
            ],
            "scale" : [
                0.7590954303741455,
                1,
                0.7590954303741455
            ],
            "translation" : [
                0,
                30.11199951171875,
                0
            ]
        },
        {
            "mesh" : 4,
            "name" : "treadmill.013",
            "rotation" : [
                0,
                -0.9998389482498169,
                0,
                0.01794702373445034
            ],
            "translation" : [
                -0.3424444794654846,
                32.2980842590332,
                -3.719275951385498
            ]
        },
        {
            "mesh" : 5,
            "name" : "sleep_pod.001",
            "translation" : [
                0,
                34.7972526550293,
                0
            ]
        },
        {
            "mesh" : 6,
            "name" : "table_bench.001",
            "scale" : [
                4.11060905456543,
                4.11060905456543,
                4.11060905456543
            ],
            "translation" : [
                0,
                37.2162971496582,
                0
            ]
        },
        {
            "mesh" : 7,
            "name" : "cargo_crane.001",
            "scale" : [
                0.10573653131723404,
                0.10573653131723404,
                0.10573653131723404
            ],
            "translation" : [
                -3.2622270584106445,
                29.728670120239258,
                0
            ]
        },
        {
            "mesh" : 8,
            "name" : "floors-col",
            "scale" : [
                1.2827348709106445,
                1,
                1.2827348709106445
            ],
            "translation" : [
                0,
                31.17999839782715,
                0
            ]
        }
    ],
    "materials" : [
        {
            "name" : "white_paint",
            "pbrMetallicRoughness" : {
                "baseColorFactor" : [
                    0.800000011920929,
                    0.800000011920929,
                    0.800000011920929,
                    1
                ],
                "metallicFactor" : 0,
                "roughnessFactor" : 0.22340425848960876
            }
        },
        {
            "doubleSided" : true,
            "name" : "black_paint",
            "pbrMetallicRoughness" : {
                "baseColorFactor" : [
                    0.003931927960366011,
                    0.003935648128390312,
                    0.0038692473899573088,
                    1
                ],
                "roughnessFactor" : 0.17374223470687866
            }
        }
    ],
    "meshes" : [
        {
            "name" : "Circle.001",
            "primitives" : [
                {
                    "attributes" : {
                        "POSITION" : 0,
                        "NORMAL" : 1,
                        "TEXCOORD_0" : 2
                    },
                    "indices" : 3,
                    "material" : 0
                }
            ]
        },
        {
            "name" : "Circle.004",
            "primitives" : [
                {
                    "attributes" : {
                        "POSITION" : 4,
                        "NORMAL" : 5,
                        "TEXCOORD_0" : 6
                    },
                    "indices" : 7,
                    "material" : 1
                }
            ]
        },
        {
            "name" : "Cylinder.025",
            "primitives" : [
                {
                    "attributes" : {
                        "POSITION" : 8,
                        "NORMAL" : 9,
                        "TEXCOORD_0" : 10
                    },
                    "indices" : 11,
                    "material" : 1
                },
                {
                    "attributes" : {
                        "POSITION" : 12,
                        "NORMAL" : 13,
                        "TEXCOORD_0" : 14
                    },
                    "indices" : 15,
                    "material" : 0
                }
            ]
        },
        {
            "name" : "Circle.006",
            "primitives" : [
                {
                    "attributes" : {
                        "POSITION" : 16,
                        "NORMAL" : 17,
                        "TEXCOORD_0" : 18
                    },
                    "indices" : 19
                }
            ]
        },
        {
            "name" : "Plane.004",
            "primitives" : [
                {
                    "attributes" : {
                        "POSITION" : 20,
                        "NORMAL" : 21,
                        "TEXCOORD_0" : 22
                    },
                    "indices" : 23,
                    "material" : 1
                }
            ]
        },
        {
            "name" : "Circle.010",
            "primitives" : [
                {
                    "attributes" : {
                        "POSITION" : 24,
                        "NORMAL" : 25,
                        "TEXCOORD_0" : 26
                    },
                    "indices" : 27,
                    "material" : 1
                }
            ]
        },
        {
            "name" : "Circle.012",
            "primitives" : [
                {
                    "attributes" : {
                        "POSITION" : 28,
                        "NORMAL" : 29,
                        "TEXCOORD_0" : 30
                    },
                    "indices" : 31,
                    "material" : 1
                },
                {
                    "attributes" : {
                        "POSITION" : 32,
                        "NORMAL" : 33,
                        "TEXCOORD_0" : 34
                    },
                    "indices" : 35,
                    "material" : 0
                }
            ]
        },
        {
            "name" : "Cube.076",
            "primitives" : [
                {
                    "attributes" : {
                        "POSITION" : 36,
                        "NORMAL" : 37,
                        "TEXCOORD_0" : 38
                    },
                    "indices" : 39
                }
            ]
        },
        {
            "name" : "Cylinder.024",
            "primitives" : [
                {
                    "attributes" : {
                        "POSITION" : 40,
                        "NORMAL" : 41,
                        "TEXCOORD_0" : 42
                    },
                    "indices" : 43,
                    "material" : 0
                }
            ]
        }
    ],
    "accessors" : [
        {
            "bufferView" : 0,
            "componentType" : 5126,
            "count" : 1626,
            "max" : [
                4.437230110168457,
                3.360945463180542,
                4.3967976570129395
            ],
            "min" : [
                -4.437249660491943,
                -14.503510475158691,
                -4.397153854370117
            ],
            "type" : "VEC3"
        },
        {
            "bufferView" : 1,
            "componentType" : 5126,
            "count" : 1626,
            "type" : "VEC3"
        },
        {
            "bufferView" : 2,
            "componentType" : 5126,
            "count" : 1626,
            "type" : "VEC2"
        },
        {
            "bufferView" : 3,
            "componentType" : 5123,
            "count" : 5088,
            "type" : "SCALAR"
        },
        {
            "bufferView" : 4,
            "componentType" : 5126,
            "count" : 131,
            "max" : [
                2.510263681411743,
                -12.197553634643555,
                0.28874465823173523
            ],
            "min" : [
                -2.510263681411743,
                -14.497493743896484,
                -3.6636996269226074
            ],
            "type" : "VEC3"
        },
        {
            "bufferView" : 5,
            "componentType" : 5126,
            "count" : 131,
            "type" : "VEC3"
        },
        {
            "bufferView" : 6,
            "componentType" : 5126,
            "count" : 131,
            "type" : "VEC2"
        },
        {
            "bufferView" : 7,
            "componentType" : 5123,
            "count" : 312,
            "type" : "SCALAR"
        },
        {
            "bufferView" : 8,
            "componentType" : 5126,
            "count" : 5636,
            "max" : [
                3.2912988662719727,
                13.434429168701172,
                1.292550802230835
            ],
            "min" : [
                -1.523026704788208,
                -3.406064987182617,
                -1.292550802230835
            ],
            "type" : "VEC3"
        },
        {
            "bufferView" : 9,
            "componentType" : 5126,
            "count" : 5636,
            "type" : "VEC3"
        },
        {
            "bufferView" : 10,
            "componentType" : 5126,
            "count" : 5636,
            "type" : "VEC2"
        },
        {
            "bufferView" : 11,
            "componentType" : 5123,
            "count" : 12324,
            "type" : "SCALAR"
        },
        {
            "bufferView" : 12,
            "componentType" : 5126,
            "count" : 168,
            "max" : [
                3.4167706966400146,
                3.5095763206481934,
                3.3184750080108643
            ],
            "min" : [
                -1.948960781097412,
                -3.412590980529785,
                -3.2917966842651367
            ],
            "type" : "VEC3"
        },
        {
            "bufferView" : 13,
            "componentType" : 5126,
            "count" : 168,
            "type" : "VEC3"
        },
        {
            "bufferView" : 14,
            "componentType" : 5126,
            "count" : 168,
            "type" : "VEC2"
        },
        {
            "bufferView" : 15,
            "componentType" : 5123,
            "count" : 312,
            "type" : "SCALAR"
        },
        {
            "bufferView" : 16,
            "componentType" : 5126,
            "count" : 1892,
            "max" : [
                5.500340938568115,
                2.141582489013672,
                5.595830917358398
            ],
            "min" : [
                -5.566098690032959,
                0,
                -5.606839179992676
            ],
            "type" : "VEC3"
        },
        {
            "bufferView" : 17,
            "componentType" : 5126,
            "count" : 1892,
            "type" : "VEC3"
        },
        {
            "bufferView" : 18,
            "componentType" : 5126,
            "count" : 1892,
            "type" : "VEC2"
        },
        {
            "bufferView" : 19,
            "componentType" : 5123,
            "count" : 2700,
            "type" : "SCALAR"
        },
        {
            "bufferView" : 20,
            "componentType" : 5126,
            "count" : 1357,
            "max" : [
                3.938732624053955,
                0.9629343748092651,
                0.3676830530166626
            ],
            "min" : [
                -0.9605384469032288,
                0,
                -7.907121658325195
            ],
            "type" : "VEC3"
        },
        {
            "bufferView" : 21,
            "componentType" : 5126,
            "count" : 1357,
            "type" : "VEC3"
        },
        {
            "bufferView" : 22,
            "componentType" : 5126,
            "count" : 1357,
            "type" : "VEC2"
        },
        {
            "bufferView" : 23,
            "componentType" : 5123,
            "count" : 3192,
            "type" : "SCALAR"
        },
        {
            "bufferView" : 24,
            "componentType" : 5126,
            "count" : 16432,
            "max" : [
                4.337818145751953,
                2.193957805633545,
                4.3550124168396
            ],
            "min" : [
                -4.340176582336426,
                -0.08181265741586685,
                -4.355203151702881
            ],
            "type" : "VEC3"
        },
        {
            "bufferView" : 25,
            "componentType" : 5126,
            "count" : 16432,
            "type" : "VEC3"
        },
        {
            "bufferView" : 26,
            "componentType" : 5126,
            "count" : 16432,
            "type" : "VEC2"
        },
        {
            "bufferView" : 27,
            "componentType" : 5123,
            "count" : 24660,
            "type" : "SCALAR"
        },
        {
            "bufferView" : 28,
            "componentType" : 5126,
            "count" : 2160,
            "max" : [
                0.9813676476478577,
                0.05451497063040733,
                0.9976299405097961
            ],
            "min" : [
                -0.9989433884620667,
                -0.055485036224126816,
                -0.9978508353233337
            ],
            "type" : "VEC3"
        },
        {
            "bufferView" : 29,
            "componentType" : 5126,
            "count" : 2160,
            "type" : "VEC3"
        },
        {
            "bufferView" : 30,
            "componentType" : 5126,
            "count" : 2160,
            "type" : "VEC2"
        },
        {
            "bufferView" : 31,
            "componentType" : 5123,
            "count" : 6120,
            "type" : "SCALAR"
        },
        {
            "bufferView" : 32,
            "componentType" : 5126,
            "count" : 160,
            "max" : [
                0.9084305167198181,
                0.1324855089187622,
                0.9250991344451904
            ],
            "min" : [
                -0.9139010906219482,
                0.11642944812774658,
                -0.9215694665908813
            ],
            "type" : "VEC3"
        },
        {
            "bufferView" : 33,
            "componentType" : 5126,
            "count" : 160,
            "type" : "VEC3"
        },
        {
            "bufferView" : 34,
            "componentType" : 5126,
            "count" : 160,
            "type" : "VEC2"
        },
        {
            "bufferView" : 35,
            "componentType" : 5123,
            "count" : 900,
            "type" : "SCALAR"
        },
        {
            "bufferView" : 36,
            "componentType" : 5126,
            "count" : 232,
            "max" : [
                26.703777313232422,
                1,
                1
            ],
            "min" : [
                -8.677434921264648,
                -1,
                -1
            ],
            "type" : "VEC3"
        },
        {
            "bufferView" : 37,
            "componentType" : 5126,
            "count" : 232,
            "type" : "VEC3"
        },
        {
            "bufferView" : 38,
            "componentType" : 5126,
            "count" : 232,
            "type" : "VEC2"
        },
        {
            "bufferView" : 39,
            "componentType" : 5123,
            "count" : 324,
            "type" : "SCALAR"
        },
        {
            "bufferView" : 40,
            "componentType" : 5126,
            "count" : 1024,
            "max" : [
                3.4167706966400146,
                12.497894287109375,
                3.450324773788452
            ],
            "min" : [
                -3.4100515842437744,
                -1.125901222229004,
                -3.4390125274658203
            ],
            "type" : "VEC3"
        },
        {
            "bufferView" : 41,
            "componentType" : 5126,
            "count" : 1024,
            "type" : "VEC3"
        },
        {
            "bufferView" : 42,
            "componentType" : 5126,
            "count" : 1024,
            "type" : "VEC2"
        },
        {
            "bufferView" : 43,
            "componentType" : 5123,
            "count" : 2916,
            "type" : "SCALAR"
        }
    ],
    "bufferViews" : [
        {
            "buffer" : 0,
            "byteLength" : 19512,
            "byteOffset" : 0
        },
        {
            "buffer" : 0,
            "byteLength" : 19512,
            "byteOffset" : 19512
        },
        {
            "buffer" : 0,
            "byteLength" : 13008,
            "byteOffset" : 39024
        },
        {
            "buffer" : 0,
            "byteLength" : 10176,
            "byteOffset" : 52032
        },
        {
            "buffer" : 0,
            "byteLength" : 1572,
            "byteOffset" : 62208
        },
        {
            "buffer" : 0,
            "byteLength" : 1572,
            "byteOffset" : 63780
        },
        {
            "buffer" : 0,
            "byteLength" : 1048,
            "byteOffset" : 65352
        },
        {
            "buffer" : 0,
            "byteLength" : 624,
            "byteOffset" : 66400
        },
        {
            "buffer" : 0,
            "byteLength" : 67632,
            "byteOffset" : 67024
        },
        {
            "buffer" : 0,
            "byteLength" : 67632,
            "byteOffset" : 134656
        },
        {
            "buffer" : 0,
            "byteLength" : 45088,
            "byteOffset" : 202288
        },
        {
            "buffer" : 0,
            "byteLength" : 24648,
            "byteOffset" : 247376
        },
        {
            "buffer" : 0,
            "byteLength" : 2016,
            "byteOffset" : 272024
        },
        {
            "buffer" : 0,
            "byteLength" : 2016,
            "byteOffset" : 274040
        },
        {
            "buffer" : 0,
            "byteLength" : 1344,
            "byteOffset" : 276056
        },
        {
            "buffer" : 0,
            "byteLength" : 624,
            "byteOffset" : 277400
        },
        {
            "buffer" : 0,
            "byteLength" : 22704,
            "byteOffset" : 278024
        },
        {
            "buffer" : 0,
            "byteLength" : 22704,
            "byteOffset" : 300728
        },
        {
            "buffer" : 0,
            "byteLength" : 15136,
            "byteOffset" : 323432
        },
        {
            "buffer" : 0,
            "byteLength" : 5400,
            "byteOffset" : 338568
        },
        {
            "buffer" : 0,
            "byteLength" : 16284,
            "byteOffset" : 343968
        },
        {
            "buffer" : 0,
            "byteLength" : 16284,
            "byteOffset" : 360252
        },
        {
            "buffer" : 0,
            "byteLength" : 10856,
            "byteOffset" : 376536
        },
        {
            "buffer" : 0,
            "byteLength" : 6384,
            "byteOffset" : 387392
        },
        {
            "buffer" : 0,
            "byteLength" : 197184,
            "byteOffset" : 393776
        },
        {
            "buffer" : 0,
            "byteLength" : 197184,
            "byteOffset" : 590960
        },
        {
            "buffer" : 0,
            "byteLength" : 131456,
            "byteOffset" : 788144
        },
        {
            "buffer" : 0,
            "byteLength" : 49320,
            "byteOffset" : 919600
        },
        {
            "buffer" : 0,
            "byteLength" : 25920,
            "byteOffset" : 968920
        },
        {
            "buffer" : 0,
            "byteLength" : 25920,
            "byteOffset" : 994840
        },
        {
            "buffer" : 0,
            "byteLength" : 17280,
            "byteOffset" : 1020760
        },
        {
            "buffer" : 0,
            "byteLength" : 12240,
            "byteOffset" : 1038040
        },
        {
            "buffer" : 0,
            "byteLength" : 1920,
            "byteOffset" : 1050280
        },
        {
            "buffer" : 0,
            "byteLength" : 1920,
            "byteOffset" : 1052200
        },
        {
            "buffer" : 0,
            "byteLength" : 1280,
            "byteOffset" : 1054120
        },
        {
            "buffer" : 0,
            "byteLength" : 1800,
            "byteOffset" : 1055400
        },
        {
            "buffer" : 0,
            "byteLength" : 2784,
            "byteOffset" : 1057200
        },
        {
            "buffer" : 0,
            "byteLength" : 2784,
            "byteOffset" : 1059984
        },
        {
            "buffer" : 0,
            "byteLength" : 1856,
            "byteOffset" : 1062768
        },
        {
            "buffer" : 0,
            "byteLength" : 648,
            "byteOffset" : 1064624
        },
        {
            "buffer" : 0,
            "byteLength" : 12288,
            "byteOffset" : 1065272
        },
        {
            "buffer" : 0,
            "byteLength" : 12288,
            "byteOffset" : 1077560
        },
        {
            "buffer" : 0,
            "byteLength" : 8192,
            "byteOffset" : 1089848
        },
        {
            "buffer" : 0,
            "byteLength" : 5832,
            "byteOffset" : 1098040
        }
    ],
    "buffers" : [
        {
            "byteLength" : 1103872,
            "uri" : "data:application/octet-stream;base64,"
        }
    ]
}
